# xmcd
#
# Track frame offsets: 
#        225
#        11112
#        21030
#        30052
#        37160
#        45822
#        55107
#        63185
#        73747
#        81692
#        87892
#        97005
#        108270
#        114290
#        122770
#        129550
#        140960
#        149672
#        157042
#        165860
#
# Disc length: 2338 seconds
#
# Revision: 2
# Processed by: cddbd v1.4PL0 Copyright (c) Steve Scherf et al.
# Submitted via: ExactAudioCopy v0.95a1
#
DISCID=10091f14
DTITLE=Reno and Harrell - 20 Bluegrass Favorites
DYEAR=1997
DGENRE=Bluegrass
TTITLE0=Under The Double Eage
TTITLE1=I'm A Man Of Constant Sorrow
TTITLE2=Long Journey Home
TTITLE3=Rek Rockin' Chair
TTITLE4=Hot Corn - Cold Corn
TTITLE5=Footprints N The Snow
TTITLE6=Gotta Travel On
TTITLE7=Little Pal
TTITLE8=Nine Pound Hammer
TTITLE9=I Don't Love Nobody
TTITLE10=Poor Ellen Smith
TTITLE11=The Great Speckled Bird
TTITLE12=Limehouse Blues
TTITLE13=Molly And Tenbrooks
TTITLE14=Whitehouse Blue
TTITLE15=When The Roses Bloom Again
TTITLE16=Nobody's Business
TTITLE17=Dill Pickle Rag
TTITLE18=Keep On The Sunny Side
TTITLE19=Worried Man Blues
EXTD=
EXTT0=
EXTT1=
EXTT2=
EXTT3=
EXTT4=
EXTT5=
EXTT6=
EXTT7=
EXTT8=
EXTT9=
EXTT10=
EXTT11=
EXTT12=
EXTT13=
EXTT14=
EXTT15=
EXTT16=
EXTT17=
EXTT18=
EXTT19=
PLAYORDER=
